<svg width="15" height="16" viewBox="0 0 15 16" fill="none" xmlns="http://www.w3.org/2000/svg">
<g clip-path="url(#clip0_3483_1735)">
<path d="M2.34375 2.55V1C2.34375 0.867392 2.39314 0.740215 2.48104 0.646447C2.56895 0.552678 2.68818 0.5 2.8125 0.5C2.93682 0.5 3.05605 0.552678 3.14396 0.646447C3.23186 0.740215 3.28125 0.867392 3.28125 1V2.5H7.03125V1C7.03125 0.867392 7.08064 0.740215 7.16854 0.646447C7.25645 0.552678 7.37568 0.5 7.5 0.5C7.62432 0.5 7.74355 0.552678 7.83146 0.646447C7.91936 0.740215 7.96875 0.867392 7.96875 1V2.5H11.7188V1C11.7188 0.867392 11.7681 0.740215 11.856 0.646447C11.944 0.552678 12.0632 0.5 12.1875 0.5C12.3118 0.5 12.431 0.552678 12.519 0.646447C12.6069 0.740215 12.6562 0.867392 12.6562 1V2.55C13.1856 2.66527 13.6614 2.97209 14.0031 3.41855C14.3448 3.86501 14.5314 4.42367 14.5312 5V13C14.5312 13.663 14.2843 14.2989 13.8448 14.7678C13.6271 14.9999 13.3688 15.1841 13.0844 15.3097C12.8001 15.4353 12.4953 15.5 12.1875 15.5H2.8125C2.1909 15.5 1.59476 15.2366 1.15522 14.7678C0.71568 14.2989 0.46875 13.663 0.46875 13V5C0.468639 4.42367 0.65521 3.86501 0.996887 3.41855C1.33856 2.97209 1.81436 2.66527 2.34375 2.55ZM12.1875 3.5H2.8125C2.43954 3.5 2.08185 3.65804 1.81813 3.93934C1.55441 4.22064 1.40625 4.60218 1.40625 5V5.5H13.5938V5C13.5938 4.60218 13.4456 4.22064 13.1819 3.93934C12.9181 3.65804 12.5605 3.5 12.1875 3.5ZM2.8125 14.5H12.1875C12.5605 14.5 12.9181 14.342 13.1819 14.0607C13.4456 13.7794 13.5938 13.3978 13.5938 13V6.5H1.40625V13C1.40625 13.3978 1.55441 13.7794 1.81813 14.0607C2.08185 14.342 2.43954 14.5 2.8125 14.5Z" fill="#273F69"/>
<path d="M11.25 8H12.1875C12.3118 8 12.431 8.05268 12.519 8.14645C12.6069 8.24021 12.6562 8.36739 12.6562 8.5C12.6562 8.63261 12.6069 8.75979 12.519 8.85355C12.431 8.94732 12.3118 9 12.1875 9H11.25C11.1257 9 11.0065 8.94732 10.9185 8.85355C10.8306 8.75979 10.7812 8.63261 10.7812 8.5C10.7812 8.36739 10.8306 8.24021 10.9185 8.14645C11.0065 8.05268 11.1257 8 11.25 8Z" fill="#273F69"/>
<path d="M7.03125 8H7.96875C8.09307 8 8.2123 8.05268 8.30021 8.14645C8.38811 8.24021 8.4375 8.36739 8.4375 8.5C8.4375 8.63261 8.38811 8.75979 8.30021 8.85355C8.2123 8.94732 8.09307 9 7.96875 9H7.03125C6.90693 9 6.7877 8.94732 6.69979 8.85355C6.61189 8.75979 6.5625 8.63261 6.5625 8.5C6.5625 8.36739 6.61189 8.24021 6.69979 8.14645C6.7877 8.05268 6.90693 8 7.03125 8Z" fill="#273F69"/>
<path d="M2.8125 8H3.75C3.87432 8 3.99355 8.05268 4.08146 8.14645C4.16936 8.24021 4.21875 8.36739 4.21875 8.5C4.21875 8.63261 4.16936 8.75979 4.08146 8.85355C3.99355 8.94732 3.87432 9 3.75 9H2.8125C2.68818 9 2.56895 8.94732 2.48104 8.85355C2.39314 8.75979 2.34375 8.63261 2.34375 8.5C2.34375 8.36739 2.39314 8.24021 2.48104 8.14645C2.56895 8.05268 2.68818 8 2.8125 8Z" fill="#273F69"/>
<path d="M11.25 10H12.1875C12.3118 10 12.431 10.0527 12.519 10.1464C12.6069 10.2402 12.6562 10.3674 12.6562 10.5C12.6562 10.6326 12.6069 10.7598 12.519 10.8536C12.431 10.9473 12.3118 11 12.1875 11H11.25C11.1257 11 11.0065 10.9473 10.9185 10.8536C10.8306 10.7598 10.7812 10.6326 10.7812 10.5C10.7812 10.3674 10.8306 10.2402 10.9185 10.1464C11.0065 10.0527 11.1257 10 11.25 10Z" fill="#273F69"/>
<path d="M7.03125 10H7.96875C8.09307 10 8.2123 10.0527 8.30021 10.1464C8.38811 10.2402 8.4375 10.3674 8.4375 10.5C8.4375 10.6326 8.38811 10.7598 8.30021 10.8536C8.2123 10.9473 8.09307 11 7.96875 11H7.03125C6.90693 11 6.7877 10.9473 6.69979 10.8536C6.61189 10.7598 6.5625 10.6326 6.5625 10.5C6.5625 10.3674 6.61189 10.2402 6.69979 10.1464C6.7877 10.0527 6.90693 10 7.03125 10Z" fill="#273F69"/>
<path d="M2.8125 10H3.75C3.87432 10 3.99355 10.0527 4.08146 10.1464C4.16936 10.2402 4.21875 10.3674 4.21875 10.5C4.21875 10.6326 4.16936 10.7598 4.08146 10.8536C3.99355 10.9473 3.87432 11 3.75 11H2.8125C2.68818 11 2.56895 10.9473 2.48104 10.8536C2.39314 10.7598 2.34375 10.6326 2.34375 10.5C2.34375 10.3674 2.39314 10.2402 2.48104 10.1464C2.56895 10.0527 2.68818 10 2.8125 10Z" fill="#273F69"/>
<path d="M11.25 12H12.1875C12.3118 12 12.431 12.0527 12.519 12.1464C12.6069 12.2402 12.6562 12.3674 12.6562 12.5C12.6562 12.6326 12.6069 12.7598 12.519 12.8536C12.431 12.9473 12.3118 13 12.1875 13H11.25C11.1257 13 11.0065 12.9473 10.9185 12.8536C10.8306 12.7598 10.7812 12.6326 10.7812 12.5C10.7812 12.3674 10.8306 12.2402 10.9185 12.1464C11.0065 12.0527 11.1257 12 11.25 12Z" fill="#273F69"/>
<path d="M7.03125 12H7.96875C8.09307 12 8.2123 12.0527 8.30021 12.1464C8.38811 12.2402 8.4375 12.3674 8.4375 12.5C8.4375 12.6326 8.38811 12.7598 8.30021 12.8536C8.2123 12.9473 8.09307 13 7.96875 13H7.03125C6.90693 13 6.7877 12.9473 6.69979 12.8536C6.61189 12.7598 6.5625 12.6326 6.5625 12.5C6.5625 12.3674 6.61189 12.2402 6.69979 12.1464C6.7877 12.0527 6.90693 12 7.03125 12Z" fill="#273F69"/>
<path d="M2.8125 12H3.75C3.87432 12 3.99355 12.0527 4.08146 12.1464C4.16936 12.2402 4.21875 12.3674 4.21875 12.5C4.21875 12.6326 4.16936 12.7598 4.08146 12.8536C3.99355 12.9473 3.87432 13 3.75 13H2.8125C2.68818 13 2.56895 12.9473 2.48104 12.8536C2.39314 12.7598 2.34375 12.6326 2.34375 12.5C2.34375 12.3674 2.39314 12.2402 2.48104 12.1464C2.56895 12.0527 2.68818 12 2.8125 12Z" fill="#273F69"/>
</g>
<defs>
<clipPath id="clip0_3483_1735">
<rect width="15" height="16" fill="white" transform="matrix(-1 0 0 1 15 0)"/>
</clipPath>
</defs>
</svg>
