<svg width="15" height="16" viewBox="0 0 15 16" fill="none" xmlns="http://www.w3.org/2000/svg">
<path d="M2.34375 2.55V1C2.34375 0.867392 2.39314 0.740215 2.48104 0.646447C2.56895 0.552678 2.68818 0.5 2.8125 0.5C2.93682 0.5 3.05605 0.552678 3.14396 0.646447C3.23186 0.740215 3.28125 0.867392 3.28125 1V2.5H7.03125V1C7.03125 0.867392 7.08064 0.740215 7.16854 0.646447C7.25645 0.552678 7.37568 0.5 7.5 0.5C7.62432 0.5 7.74355 0.552678 7.83146 0.646447C7.91936 0.740215 7.96875 0.867392 7.96875 1V2.5H11.7188V1C11.7188 0.867392 11.7681 0.740215 11.856 0.646447C11.944 0.552678 12.0632 0.5 12.1875 0.5C12.3118 0.5 12.431 0.552678 12.519 0.646447C12.6069 0.740215 12.6562 0.867392 12.6562 1V2.55C13.1856 2.66527 13.6614 2.97209 14.0031 3.41855C14.3448 3.86501 14.5314 4.42367 14.5312 5V13C14.5312 13.663 14.2843 14.2989 13.8448 14.7678C13.6271 14.9999 13.3688 15.1841 13.0844 15.3097C12.8001 15.4353 12.4953 15.5 12.1875 15.5H2.8125C2.1909 15.5 1.59476 15.2366 1.15522 14.7678C0.71568 14.2989 0.46875 13.663 0.46875 13V5C0.468639 4.42367 0.65521 3.86501 0.996887 3.41855C1.33856 2.97209 1.81436 2.66527 2.34375 2.55ZM12.1875 3.5H2.8125C2.43954 3.5 2.08185 3.65804 1.81813 3.93934C1.55441 4.22064 1.40625 4.60218 1.40625 5V5.5H13.5938V5C13.5938 4.60218 13.4456 4.22064 13.1819 3.93934C12.9181 3.65804 12.5605 3.5 12.1875 3.5ZM2.8125 14.5H12.1875C12.5605 14.5 12.9181 14.342 13.1819 14.0607C13.4456 13.7794 13.5938 13.3978 13.5938 13V6.5H1.40625V13C1.40625 13.3978 1.55441 13.7794 1.81813 14.0607C2.08185 14.342 2.43954 14.5 2.8125 14.5Z" fill="#03A69E"/>
</svg>
