<svg width="16" height="10" viewBox="0 0 16 10" fill="none" xmlns="http://www.w3.org/2000/svg">
<path d="M15.3424 4.84812C15.3212 4.79938 14.8012 3.64625 13.6399 2.485C12.5624 1.40875 10.7112 0.125 7.99991 0.125C5.28866 0.125 3.43741 1.40875 2.35991 2.485C1.19866 3.64625 0.678659 4.7975 0.657409 4.84812C0.636042 4.89613 0.625 4.94808 0.625 5.00062C0.625 5.05317 0.636042 5.10512 0.657409 5.15312C0.678659 5.20125 1.19866 6.35437 2.35991 7.51562C3.43741 8.59188 5.28866 9.875 7.99991 9.875C10.7112 9.875 12.5624 8.59188 13.6399 7.51562C14.8012 6.35437 15.3212 5.20312 15.3424 5.15312C15.3638 5.10512 15.3748 5.05317 15.3748 5.00062C15.3748 4.94808 15.3638 4.89613 15.3424 4.84812ZM7.99991 9.125C6.03866 9.125 4.32616 8.41125 2.90928 7.00438C2.31535 6.41407 1.81274 5.73852 1.41803 5C1.81264 4.2616 2.31526 3.58624 2.90928 2.99625C4.32616 1.58875 6.03866 0.875 7.99991 0.875C9.96116 0.875 11.6737 1.58875 13.0905 2.99625C13.6846 3.58624 14.1872 4.2616 14.5818 5C14.1837 5.76312 12.1874 9.125 7.99991 9.125ZM7.99991 2.125C7.43129 2.125 6.87544 2.29362 6.40264 2.60952C5.92985 2.92543 5.56136 3.37445 5.34376 3.89979C5.12615 4.42512 5.06922 5.00319 5.18015 5.56088C5.29108 6.11858 5.5649 6.63086 5.96698 7.03293C6.36905 7.43501 6.88133 7.70883 7.43902 7.81976C7.99672 7.93069 8.57479 7.87376 9.10012 7.65615C9.62546 7.43855 10.0745 7.07006 10.3904 6.59726C10.7063 6.12447 10.8749 5.56862 10.8749 5C10.8739 4.23781 10.5707 3.50712 10.0317 2.96816C9.49279 2.42921 8.7621 2.12599 7.99991 2.125ZM7.99991 7.125C7.57962 7.125 7.16878 7.00037 6.81932 6.76687C6.46987 6.53338 6.1975 6.20149 6.03666 5.8132C5.87583 5.42491 5.83375 4.99764 5.91574 4.58543C5.99773 4.17322 6.20012 3.79458 6.49731 3.4974C6.79449 3.20021 7.17313 2.99782 7.58534 2.91583C7.99755 2.83384 8.42482 2.87592 8.81311 3.03676C9.2014 3.19759 9.53328 3.46996 9.76678 3.81941C10.0003 4.16887 10.1249 4.57971 10.1249 5C10.1249 5.56359 9.90102 6.10409 9.50251 6.5026C9.104 6.90112 8.56349 7.125 7.99991 7.125Z" fill="#273F69"/>
</svg>
