<svg width="14" height="13" viewBox="0 0 14 13" fill="none" xmlns="http://www.w3.org/2000/svg">
<path d="M10.125 0.5C8.83438 0.5 7.70438 1.055 7 1.99312C6.29562 1.055 5.16563 0.5 3.875 0.5C2.84764 0.501158 1.86269 0.909788 1.13624 1.63624C0.409788 2.36269 0.00115796 3.34764 0 4.375C0 8.75 6.48688 12.2913 6.76312 12.4375C6.83594 12.4767 6.91732 12.4972 7 12.4972C7.08268 12.4972 7.16406 12.4767 7.23687 12.4375C7.51312 12.2913 14 8.75 14 4.375C13.9988 3.34764 13.5902 2.36269 12.8638 1.63624C12.1373 0.909788 11.1524 0.501158 10.125 0.5ZM7 11.425C5.85875 10.76 1 7.73063 1 4.375C1.00099 3.61281 1.30421 2.88212 1.84316 2.34316C2.38212 1.80421 3.11281 1.50099 3.875 1.5C5.09062 1.5 6.11125 2.1475 6.5375 3.1875C6.57517 3.27921 6.63925 3.35764 6.7216 3.41284C6.80396 3.46804 6.90086 3.49752 7 3.49752C7.09914 3.49752 7.19604 3.46804 7.2784 3.41284C7.36075 3.35764 7.42483 3.27921 7.4625 3.1875C7.88875 2.14562 8.90938 1.5 10.125 1.5C10.8872 1.50099 11.6179 1.80421 12.1568 2.34316C12.6958 2.88212 12.999 3.61281 13 4.375C13 7.72563 8.14 10.7594 7 11.425Z" fill="#03A69E"/>
</svg>
