<svg width="14" height="18" viewBox="0 0 14 18" fill="none" xmlns="http://www.w3.org/2000/svg">
<path d="M3.33398 6.1H3.18398V6.25V15.4167V15.5667H3.33398H10.6673H10.8173V15.4167V6.25V6.1H10.6673H3.33398ZM10.1029 1.77273L10.1469 1.81667H10.209H13.2673V3.35H0.733984V1.81667H3.79232H3.85445L3.89838 1.77273L4.77112 0.9H9.23018L10.1029 1.77273ZM2.14369 16.607C1.828 16.2913 1.65065 15.8631 1.65065 15.4167V4.56667H12.3506V15.4167C12.3506 15.8631 12.1733 16.2913 11.8576 16.607C11.5419 16.9226 11.1138 17.1 10.6673 17.1H3.33398C2.88754 17.1 2.45937 16.9226 2.14369 16.607Z" fill="#E90021" stroke="white" stroke-width="0.3"/>
</svg>
