<svg width="20" height="22" viewBox="0 0 20 22" fill="none" xmlns="http://www.w3.org/2000/svg">
<path d="M8.3 19.9949C8.46738 20.2993 8.71345 20.5531 9.01249 20.7299C9.31153 20.9067 9.65258 21 10 21C10.3474 21 10.6885 20.9067 10.9875 20.7299C11.2866 20.5531 11.5326 20.2993 11.7 19.9949M4 6.9984C4 5.40753 4.63214 3.88181 5.75736 2.75689C6.88258 1.63197 8.4087 1 10 1C11.5913 1 13.1174 1.63197 14.2426 2.75689C15.3679 3.88181 16 5.40753 16 6.9984C16 13.9965 19 15.996 19 15.996H1C1 15.996 4 13.9965 4 6.9984Z" stroke="#273F69" stroke-width="2" stroke-linecap="round" stroke-linejoin="round"/>
</svg>
