<svg width="20" height="20" viewBox="0 0 20 20" fill="none" xmlns="http://www.w3.org/2000/svg">
<path fill-rule="evenodd" clip-rule="evenodd" d="M17.1669 1.66667C16.8636 1.66667 16.5834 1.76191 16.3394 2.00593L8.57377 9.77167L7.89234 12.1078L10.2286 11.4264L17.9943 3.66075C18.1731 3.48192 18.3335 3.10981 18.3335 2.83332C18.3335 2.21023 17.7899 1.66667 17.1669 1.66667ZM15.1609 0.827421C15.7503 0.238116 16.4701 0 17.1669 0C18.7104 0 20.0002 1.28976 20.0002 2.83332C20.0002 3.55684 19.6606 4.35142 19.1728 4.83926L11.2561 12.7559C11.1571 12.855 11.0347 12.9274 10.9002 12.9667L6.90018 14.1333C6.60808 14.2185 6.29275 14.1377 6.07759 13.9226C5.86243 13.7074 5.78165 13.3921 5.86685 13.1L7.03351 9.1C7.07273 8.96558 7.14521 8.84317 7.24426 8.74408L15.1609 0.827421Z" fill="#273F69"/>
<path fill-rule="evenodd" clip-rule="evenodd" d="M0 5.83464C0 3.54107 1.8731 1.66797 4.16667 1.66797H9.16667C9.62692 1.66797 10 2.04107 10 2.5013C10 2.96154 9.62692 3.33464 9.16667 3.33464H4.16667C2.79357 3.33464 1.66667 4.46154 1.66667 5.83464V15.8346C1.66667 17.2077 2.79357 18.3346 4.16667 18.3346H14.1667C15.5398 18.3346 16.6667 17.2077 16.6667 15.8346V10.8346C16.6667 10.3744 17.0398 10.0013 17.5 10.0013C17.9603 10.0013 18.3333 10.3744 18.3333 10.8346V15.8346C18.3333 18.1282 16.4603 20.0013 14.1667 20.0013H4.16667C1.8731 20.0013 0 18.1282 0 15.8346V5.83464Z" fill="#273F69"/>
</svg>
