<svg width="20" height="18" viewBox="0 0 20 18" fill="none" xmlns="http://www.w3.org/2000/svg">
<path d="M19 16.75C19 14.66 17.33 11.682 15 11.023M13 16.75C13 14.099 10.314 10.75 7 10.75C3.686 10.75 1 14.099 1 16.75M13 7.25C13.7956 7.25 14.5587 6.93393 15.1213 6.37132C15.6839 5.80871 16 5.04565 16 4.25C16 3.45435 15.6839 2.69129 15.1213 2.12868C14.5587 1.56607 13.7956 1.25 13 1.25M10 4.25C10 5.04565 9.68393 5.80871 9.12132 6.37132C8.55871 6.93393 7.79565 7.25 7 7.25C6.20435 7.25 5.44129 6.93393 4.87868 6.37132C4.31607 5.80871 4 5.04565 4 4.25C4 3.45435 4.31607 2.69129 4.87868 2.12868C5.44129 1.56607 6.20435 1.25 7 1.25C7.79565 1.25 8.55871 1.56607 9.12132 2.12868C9.68393 2.69129 10 3.45435 10 4.25Z" stroke="#03A69E" stroke-width="1.5" stroke-linecap="round" stroke-linejoin="round"/>
</svg>
